<svg width="64" height="64" viewBox="0 0 64 64" fill="none" xmlns="http://www.w3.org/2000/svg">
<rect width="64" height="64" rx="32" fill="#F1F3F5"/>
<mask id="mask0_2_1243" style="mask-type:alpha" maskUnits="userSpaceOnUse" x="17" y="14" width="27" height="33">
<path opacity="0.85" fill-rule="evenodd" clip-rule="evenodd" d="M25.9999 39.5H23.7497C22.6863 39.5 21.6876 39.2234 20.8215 38.7382C20.2941 39.8828 20 41.1571 20 42.5V47H44V42.5C44 37.5294 39.9706 33.5 35 33.5H31.9999C31.9999 36.8137 29.3136 39.5 25.9999 39.5Z" fill="black"/>
<path opacity="0.3" fill-rule="evenodd" clip-rule="evenodd" d="M31.9996 31.4546V25.2501C31.9996 22.7648 34.0144 20.7501 36.4996 20.7501H37.2498C37.6341 20.7501 38.0015 20.6778 38.3392 20.5461C38.6053 21.315 38.7498 22.1407 38.7498 23.0001V24.7046C38.7498 28.4325 35.7278 31.4546 31.9998 31.4546C31.9998 31.4546 31.9997 31.4546 31.9996 31.4546Z" fill="black"/>
<path fill-rule="evenodd" clip-rule="evenodd" d="M23.7497 39.5H25.9999C29.3136 39.5 31.9999 36.8137 31.9999 33.5V25.25C31.9999 22.7647 34.0146 20.75 36.4999 20.75H37.25C38.1073 20.75 38.8806 20.3904 39.4273 19.8139C38.9778 16.9448 36.4951 14.75 33.4999 14.75H30.4997C26.3575 14.75 22.9996 18.108 22.9997 22.2502L22.9998 27.5H23.0001V31.3998C23.0001 33.3881 21.3882 35 19.3998 35C18.7936 35 18.2398 34.7752 17.8174 34.4045C18.2535 37.2891 20.7434 39.5 23.7497 39.5Z" fill="url(#paint0_linear_2_1243)"/>
</mask>
<g mask="url(#mask0_2_1243)">
<path d="M14 14H50V50H14V14Z" fill="#404754"/>
</g>
<defs>
<linearGradient id="paint0_linear_2_1243" x1="32" y1="16.25" x2="32.3399" y2="34.2436" gradientUnits="userSpaceOnUse">
<stop/>
<stop offset="1" stop-opacity="0.35"/>
</linearGradient>
</defs>
</svg>
