<?xml version="1.0" encoding="utf-8"?><svg viewBox="0 0 80 80" xmlns="http://www.w3.org/2000/svg" xmlns:xlink="http://www.w3.org/1999/xlink"><style>:root>svg{display:none}:root>svg:target{display:block}</style><svg fill="none" viewBox="0 0 80 80" id="avatar" xmlns="http://www.w3.org/2000/svg"><rect width="80" height="80" rx="40" fill="#F1F3F5"/></svg><svg fill="none" viewBox="0 0 64 64" id="avatarteam" xmlns="http://www.w3.org/2000/svg"><rect width="64" height="64" rx="32" fill="#B8C5D6"/><path fill-rule="evenodd" clip-rule="evenodd" d="M40.771 20.195c0 5.657-3.684 12.291-8.228 12.291s-8.228-6.634-8.228-12.291c0-5.658 3.684-8.195 8.228-8.195s8.228 2.537 8.228 8.195zm3.274 18.137l.27.11c1.559.797 2.126 2.025 2.102 3.737l.002 5.31c0 .72-.328 1.397-.875 1.811-3.283 2.488-7.855 3.958-12.549 4.034h-.787c-4.697-.076-9.305-1.546-12.648-4.03a2.28 2.28 0 01-.893-1.827v-5.343c-.023-1.648.537-2.88 2.08-3.68.086-.045.177-.081.271-.111l7.475-2.996c.578-.23 1.185-.236 1.71-.016 1.447.608 2.84.602 4.515-.018a2.362 2.362 0 011.68-.003l7.647 3.022z" fill="#fff"/></svg></svg>